<?xml version="1.0" encoding="UTF-8" standalone="no"?>
<svg
   xmlns:dc="http://purl.org/dc/elements/1.1/"
   xmlns:cc="http://creativecommons.org/ns#"
   xmlns:rdf="http://www.w3.org/1999/02/22-rdf-syntax-ns#"
   xmlns:svg="http://www.w3.org/2000/svg"
   xmlns="http://www.w3.org/2000/svg"
   xmlns:xlink="http://www.w3.org/1999/xlink"
   xmlns:sodipodi="http://sodipodi.sourceforge.net/DTD/sodipodi-0.dtd"
   xmlns:inkscape="http://www.inkscape.org/namespaces/inkscape"
   width="879.79846"
   height="907.08679"
   viewBox="0 0 232.78 240.00005"
   version="1.1"
   id="svg8"
   inkscape:export-filename="C:\Users\Jere\bitmap.png"
   inkscape:export-xdpi="99.244072"
   inkscape:export-ydpi="99.244072"
   inkscape:version="1.0 (4035a4fb49, 2020-05-01)"
   sodipodi:docname="background-image.svg">
  <defs
     id="defs2">
    <style
       id="style201">.cls-1{fill:#007acc;}</style>
    <linearGradient
       id="linearGradient4987">
      <stop
         stop-color="#a9ee52"
         offset="0"
         id="stop4989" />
      <stop
         stop-color="#53880e"
         offset="1"
         id="stop4991" />
    </linearGradient>
    <linearGradient
       gradientUnits="userSpaceOnUse"
       gradientTransform="matrix(1.0141828,0,0,0.98601554,-117.79868,-1.1663235)"
       xlink:href="#linearGradient4987"
       id="linearGradient4885"
       y2="206.79123"
       x2="85.311884"
       y1="4.4186206"
       x1="85.311884" />
    <linearGradient
       gradientUnits="userSpaceOnUse"
       gradientTransform="scale(1.3076795,0.76471339)"
       xlink:href="#linearGradient4987"
       id="linearGradient4923"
       y2="177.97501"
       x2="66.224087"
       y1="8.1075806"
       x1="66.224087" />
  </defs>
  <sodipodi:namedview
     inkscape:snap-global="false"
     id="base"
     pagecolor="#c7ef00"
     bordercolor="#666666"
     borderopacity="1.0"
     inkscape:pageopacity="0"
     inkscape:pageshadow="2"
     inkscape:zoom="0.30313492"
     inkscape:cx="585.45681"
     inkscape:cy="211.32578"
     inkscape:document-units="mm"
     inkscape:current-layer="g76"
     inkscape:document-rotation="0"
     showgrid="false"
     showborder="false"
     showguides="true"
     inkscape:guide-bbox="true"
     inkscape:snap-center="false"
     inkscape:snap-object-midpoints="true"
     inkscape:snap-others="false"
     inkscape:snap-grids="true"
     inkscape:snap-bbox="false"
     inkscape:snap-bbox-midpoints="false"
     inkscape:snap-nodes="false"
     units="px"
     fit-margin-top="0"
     fit-margin-left="0"
     fit-margin-right="0"
     fit-margin-bottom="0"
     inkscape:window-width="1366"
     inkscape:window-height="745"
     inkscape:window-x="-8"
     inkscape:window-y="-8"
     inkscape:window-maximized="1"
     inkscape:pagecheckerboard="false" />
  <metadata
     id="metadata5">
    <rdf:RDF>
      <cc:Work
         rdf:about="">
        <dc:format>image/svg+xml</dc:format>
        <dc:type
           rdf:resource="http://purl.org/dc/dcmitype/StillImage" />
        <dc:title />
      </cc:Work>
    </rdf:RDF>
  </metadata>
  <g
     inkscape:label="Capa 1"
     inkscape:groupmode="layer"
     id="layer1"
     transform="translate(-7.22)">
    <path
       id="path10"
       d="M 48.406378,16.677584 35.595351,9.2388466 c -0.807932,-0.4601823 -1.859904,-0.4601823 -2.67423,0 l -12.94786,7.4387374 c -0.83379,0.479651 -1.423834,1.381131 -1.423834,2.345363 V 33.88068 c 0,0.964239 0.605441,1.866003 1.439231,2.348266 l 3.420866,1.942992 c 1.635041,0.805322 2.212883,0.805322 2.956903,0.805322 2.420897,0 3.803768,-1.46393 3.803768,-4.0173 V 20.291649 c 0,-0.207143 -0.107788,-0.515382 -0.311146,-0.515382 h -1.63359 c -0.206848,0 -0.669936,0.308239 -0.669936,0.515085 v 14.668323 c 0,1.131856 -1.02379,2.258198 -2.937151,1.30152 L 21.083626,34.223791 C 20.960442,34.156916 20.87358,34.022456 20.87358,33.88068 V 19.022947 c 0,-0.140033 0.161239,-0.280634 0.285291,-0.352403 l 12.906025,-7.425956 c 0.120567,-0.0683 0.297783,-0.0683 0.418057,0 l 12.748561,7.424222 c 0.122031,0.07346 0.07906,0.209757 0.07906,0.354137 V 33.88068 c 0,0.141776 0.05315,0.279775 -0.06741,0.348052 l -12.807831,7.430315 c -0.109809,0.06599 -0.246068,0.06599 -0.366344,0 l -3.284895,-1.960711 c -0.09907,-0.05754 -0.216728,-0.07819 -0.311728,-0.02503 -0.913972,0.517994 -1.082474,0.586838 -1.939795,0.884044 -0.210918,0.07344 -0.522064,0.201034 0.119115,0.560407 l 4.299102,2.543216 c 0.411666,0.238218 0.879404,0.361986 1.350044,0.361986 0.477032,0 0.944187,-0.123768 1.355852,-0.361986 l 12.74943,-7.432067 c 0.833783,-0.485746 1.228887,-1.384029 1.228887,-2.34827 V 19.022891 c 0,-0.964232 -0.395104,-1.863382 -1.228605,-2.34536 z m -10.12779,14.84873 c -3.40663,0 -4.15704,-0.93983 -4.407178,-2.633845 -0.02906,-0.182444 -0.183898,-0.400625 -0.369541,-0.400625 h -1.664965 c -0.205978,0 -0.371575,0.249846 -0.371575,0.454956 0,2.169008 1.17922,4.797055 6.813549,4.797055 4.078599,0 6.416988,-1.584791 6.416988,-4.389456 0,-2.780859 -1.878789,-3.510639 -5.834206,-4.034157 -3.998126,-0.528457 -4.404272,-0.795443 -4.404272,-1.732069 0,-0.772208 0.343975,-1.802091 3.304365,-1.802091 2.645179,0 3.62016,0.56767 4.021369,2.350588 0.03427,0.167624 0.187377,0.287903 0.36024,0.287903 h 1.671646 c 0.102893,0 0.201047,-0.04151 0.273088,-0.115033 0.06972,-0.07906 0.106621,-0.17809 0.09729,-0.284423 -0.258848,-3.070211 -2.298583,-4.501015 -6.423961,-4.501015 -3.669548,0 -5.858608,1.549633 -5.858608,4.147166 0,2.817457 2.178021,3.596044 5.700567,3.94437 4.213978,0.41312 4.541685,1.029027 4.541685,1.857884 0,1.439519 -1.155681,2.052799 -3.86652,2.052799 z"
       fill="#83cd29"
       style="fill:#f5ff93;stroke-width:0.290518;fill-opacity:1"
       inkscape:export-xdpi="26.187817"
       inkscape:export-ydpi="26.187817" />
    <g
       id="g25"
       fill="#61dafb"
       transform="matrix(0.26073925,0,0,0.26073925,69.907688,9.7710246)"
       style="fill:#f5ff93;fill-opacity:1"
       inkscape:export-xdpi="26.187817"
       inkscape:export-ydpi="26.187817">
      <circle
         id="circle21"
         r="11.4"
         cy="64"
         cx="64"
         style="fill:#f5ff93;fill-opacity:1" />
      <path
         id="path23"
         d="m 107.3,45.2 c -2.2,-0.8 -4.5,-1.6 -6.9,-2.3 0.6,-2.4 1.1,-4.8 1.5,-7.1 C 104,22.6 101.7,13.3 95.3,9.7 93.4,8.6 91.3,8.1 88.9,8.1 81.9,8.1 73,13.3 64,22 55,13.3 46.1,8.1 39.1,8.1 c -2.4,0 -4.5,0.5 -6.4,1.6 -6.4,3.7 -8.7,13 -6.6,26.1 0.4,2.3 0.9,4.7 1.5,7.1 -2.4,0.7 -4.7,1.4 -6.9,2.3 C 8.2,50 1.4,56.6 1.4,64 c 0,7.4 6.9,14 19.3,18.8 2.2,0.8 4.5,1.6 6.9,2.3 -0.6,2.4 -1.1,4.8 -1.5,7.1 -2.1,13.2 0.2,22.5 6.6,26.1 1.9,1.1 4,1.6 6.4,1.6 7.1,0 16,-5.2 24.9,-13.9 9,8.7 17.9,13.9 24.9,13.9 2.4,0 4.5,-0.5 6.4,-1.6 6.4,-3.7 8.7,-13 6.6,-26.1 -0.4,-2.3 -0.9,-4.7 -1.5,-7.1 2.4,-0.7 4.7,-1.4 6.9,-2.3 12.5,-4.8 19.3,-11.4 19.3,-18.8 0,-7.4 -6.8,-14 -19.3,-18.8 z M 92.5,14.7 C 96.6,17.1 98,24.5 96.3,35 96,37.1 95.5,39.3 94.9,41.6 89.7,40.4 84.2,39.6 78.4,39.1 75,34.3 71.5,30 68,26.1 75.4,18.8 82.9,13.8 89,13.8 c 1.3,0 2.5,0.3 3.5,0.9 z M 81.3,74 c -1.8,3.2 -3.9,6.4 -6.1,9.6 C 71.5,83.9 67.8,84 64,84 60.1,84 56.4,83.9 52.8,83.6 50.6,80.4 48.6,77.2 46.8,74 44.9,70.7 43.1,67.3 41.5,64 c 1.6,-3.3 3.4,-6.7 5.3,-10 1.8,-3.2 3.9,-6.4 6.1,-9.6 3.7,-0.3 7.4,-0.4 11.2,-0.4 3.9,0 7.6,0.1 11.2,0.4 2.2,3.2 4.2,6.4 6,9.6 1.9,3.3 3.7,6.7 5.3,10 -1.7,3.3 -3.4,6.6 -5.3,10 z m 8.3,-3.3 c 1.5,3.5 2.7,6.9 3.8,10.3 -3.4,0.8 -7,1.4 -10.8,1.9 1.2,-1.9 2.5,-3.9 3.6,-6 1.2,-2.1 2.3,-4.2 3.4,-6.2 z M 64,97.8 c -2.4,-2.6 -4.7,-5.4 -6.9,-8.3 2.3,0.1 4.6,0.2 6.9,0.2 2.3,0 4.6,-0.1 6.9,-0.2 -2.2,2.9 -4.5,5.7 -6.9,8.3 z M 45.4,82.8 C 41.6,82.3 38,81.7 34.6,80.9 c 1.1,-3.3 2.3,-6.8 3.8,-10.3 1.1,2 2.2,4.1 3.4,6.1 1.2,2.2 2.4,4.1 3.6,6.1 z m -7,-25.5 C 36.9,53.8 35.7,50.4 34.6,47 c 3.4,-0.8 7,-1.4 10.8,-1.9 -1.2,1.9 -2.5,3.9 -3.6,6 -1.2,2.1 -2.3,4.2 -3.4,6.2 z M 64,30.2 c 2.4,2.6 4.7,5.4 6.9,8.3 -2.3,-0.1 -4.6,-0.2 -6.9,-0.2 -2.3,0 -4.6,0.1 -6.9,0.2 2.2,-2.9 4.5,-5.7 6.9,-8.3 z m 22.2,21 -3.6,-6 c 3.8,0.5 7.4,1.1 10.8,1.9 -1.1,3.3 -2.3,6.8 -3.8,10.3 -1.1,-2.1 -2.2,-4.2 -3.4,-6.2 z M 31.7,35 C 30,24.5 31.4,17.1 35.5,14.7 c 1,-0.6 2.2,-0.9 3.5,-0.9 6,0 13.5,4.9 21,12.3 -3.5,3.8 -7,8.2 -10.4,13 -5.8,0.5 -11.3,1.4 -16.5,2.5 -0.6,-2.3 -1,-4.5 -1.4,-6.6 z M 7,64 c 0,-4.7 5.7,-9.7 15.7,-13.4 2,-0.8 4.2,-1.5 6.4,-2.1 1.6,5 3.6,10.3 6,15.6 -2.4,5.3 -4.5,10.5 -6,15.5 C 15.3,75.6 7,69.6 7,64 Z m 28.5,49.3 C 31.4,110.9 30,103.5 31.7,93 c 0.3,-2.1 0.8,-4.3 1.4,-6.6 5.2,1.2 10.7,2 16.5,2.5 3.4,4.8 6.9,9.1 10.4,13 -7.4,7.3 -14.9,12.3 -21,12.3 -1.3,0 -2.5,-0.3 -3.5,-0.9 z M 96.3,93 c 1.7,10.5 0.3,17.9 -3.8,20.3 -1,0.6 -2.2,0.9 -3.5,0.9 -6,0 -13.5,-4.9 -21,-12.3 3.5,-3.8 7,-8.2 10.4,-13 5.8,-0.5 11.3,-1.4 16.5,-2.5 0.6,2.3 1,4.5 1.4,6.6 z m 9,-15.6 c -2,0.8 -4.2,1.5 -6.4,2.1 -1.6,-5 -3.6,-10.3 -6,-15.6 2.4,-5.3 4.5,-10.5 6,-15.5 13.8,4 22.1,10 22.1,15.6 0,4.7 -5.8,9.7 -15.7,13.4 z"
         style="fill:#f5ff93;fill-opacity:1" />
    </g>
    <path
       id="path94"
       d="m 49.183982,70.576097 0.08642,-0.05757 c -0.172796,-0.31681 -0.432013,-0.604831 -0.691219,-0.748838 l -13.91113,-8.006833 c -0.230416,-0.144013 -0.547229,-0.201613 -0.89285,-0.201613 -0.345617,0 -0.662434,0.08644 -0.892846,0.201613 l -13.824724,8.035615 c -0.489623,0.288007 -0.835241,1.00805 -0.835241,1.555282 v 16.042434 c 0,0.31681 0.05759,0.66243 0.259218,0.97926 l -0.05758,0.02889 c 0.144006,0.230401 0.34562,0.43202 0.547232,0.547218 l 13.882328,8.035632 c 0.230405,0.143998 0.547219,0.201607 0.892837,0.201607 0.345619,0 0.662445,-0.08643 0.892848,-0.201607 L 48.463998,88.951528 C 48.953625,88.66352 49.29924,87.943479 49.29924,87.396246 V 71.325009 c 0.02886,-0.230409 0,-0.489627 -0.115201,-0.748832 z m -10.224536,9.360482 v -1.152057 h 1.440079 v -1.440077 h 1.440081 v 1.440077 h 1.440067 v 1.152057 h -1.440067 v 1.440082 H 40.399525 V 79.936579 Z M 39.9099,75.904376 c -1.209661,-2.160119 -3.513785,-3.600189 -6.134724,-3.600189 -3.888198,0 -7.056366,3.16816 -7.056366,7.05637 0,3.888195 3.168168,7.056362 7.056366,7.056362 2.620939,0 4.925063,-1.440076 6.134724,-3.571379 l 3.715391,2.188915 c -1.958494,3.398568 -5.645092,5.702694 -9.850115,5.702694 -6.27872,0 -11.376593,-5.09787 -11.376593,-11.376592 0,-6.278729 5.097873,-11.376592 11.376593,-11.376592 4.233827,0 7.920412,2.332914 9.878917,5.760292 z m 8.554042,4.032203 h -1.440069 v 1.440082 h -1.152066 v -1.440082 h -1.728089 v -1.152057 h 1.728089 v -1.440077 h 1.152066 v 1.440077 h 1.440069 z"
       fill="#9c033a"
       style="fill:#f5ff93;stroke-width:0.288016;fill-opacity:1"
       inkscape:export-xdpi="26.187817"
       inkscape:export-ydpi="26.187817" />
    <path
       id="path130"
       d="m 81.352723,90.293112 c -6.141315,1.715807 3.736563,5.260379 11.556569,1.910043 -1.280936,-0.497908 -2.199638,-1.072297 -2.199638,-1.072297 -3.486968,0.65918 -5.104532,0.711015 -8.269915,0.349423 -2.61243,-0.299189 -1.087016,-1.187169 -1.087016,-1.187169 z m 10.620271,-3.347133 c -4.621985,0.889271 -7.2917,0.860784 -10.673065,0.511986 -2.614665,-0.270391 -0.903032,-1.537566 -0.903032,-1.537566 -6.763704,2.245079 3.765368,4.792541 13.218624,2.027481 -1.004792,-0.353915 -1.642527,-1.001901 -1.642527,-1.001901 z m 3.622008,-19.383618 c 3.1e-4,0 -13.67365,3.41402 -7.14323,10.939622 1.927646,2.219166 -0.505585,4.214325 -0.505585,4.214325 0,0 4.892391,-2.525073 2.646028,-5.68853 -2.098836,-2.948743 -3.707758,-4.413671 5.002787,-9.465417 z m 3.199292,25.965564 c 0,0 1.129266,0.931179 -1.244137,1.650855 -4.51255,1.36701 -18.785544,1.779161 -22.749941,0.05465 -1.423978,-0.62015 1.247655,-1.479975 2.088276,-1.661401 0.876462,-0.18976 1.376929,-0.155211 1.376929,-0.155211 -1.584601,-1.115814 -10.243945,2.191972 -4.397351,3.140747 15.942409,2.584267 29.06086,-1.163815 24.926224,-3.029702 z M 93.315042,83.82157 c 0.76639,-0.522871 1.824927,-0.976954 1.824927,-0.976954 0,0 -3.015614,0.539199 -6.020049,0.791663 -3.678003,0.308481 -7.623196,0.369276 -9.603636,0.104251 -4.688554,-0.626866 2.570507,-2.351308 2.570507,-2.351308 0,0 -2.819786,-0.190719 -6.285957,1.486056 -4.099755,1.982357 10.140909,2.886023 17.514208,0.946216 z m 1.794847,4.846293 c -0.03457,0.09276 -0.149769,0.197112 -0.149769,0.197112 10.00717,-2.63066 6.32788,-9.273091 1.543025,-7.591833 -0.419843,0.14847 -0.639993,0.493742 -0.639993,0.493742 0,0 0.265282,-0.106908 0.856944,-0.230393 2.418836,-0.503992 5.884364,3.238021 -1.610207,7.131372 z m -8.456798,-7.350895 c -1.476448,-3.337214 -6.483069,-6.256828 0.0023,-11.378653 8.086631,-6.382909 3.937268,-10.53514 3.937268,-10.53514 1.673574,6.594422 -5.904196,8.586381 -8.6395,12.693179 -1.862684,2.798355 0.914211,5.805334 4.700066,9.220614 z m 8.727514,16.559034 c -6.139714,1.155821 -13.713015,1.021104 -18.203476,0.279676 0,0 0.919661,0.76159 5.646606,1.065889 7.192182,0.459835 18.239625,-0.255982 18.500755,-3.659433 3.2e-4,0 -0.50239,1.290205 -5.943885,2.313868 z"
       fill="#ea2d2e"
       style="fill:#f5ff93;stroke-width:0.319993;fill-opacity:1"
       inkscape:export-xdpi="26.187817"
       inkscape:export-ydpi="26.187817" />
    <path
       d="m 154.46523,17.621731 0.0868,-0.05783 c -0.17354,-0.318173 -0.43387,-0.607418 -0.69419,-0.75204 L 139.88712,8.7707322 c -0.2314,-0.1446227 -0.54958,-0.2024762 -0.89668,-0.2024762 -0.34709,0 -0.66527,0.086802 -0.89667,0.2024762 l -13.88395,8.0700548 c -0.49172,0.289245 -0.83882,1.012369 -0.83882,1.561945 v 16.11117 c 0,0.318172 0.0578,0.665271 0.26032,0.983443 l -0.0578,0.02898 c 0.14463,0.231403 0.3471,0.433879 0.54958,0.549576 l 13.94181,8.070043 c 0.23139,0.144633 0.54956,0.202476 0.89665,0.202476 0.3471,0 0.66529,-0.0868 0.89668,-0.202476 l 13.88396,-8.070043 c 0.49172,-0.289246 0.83882,-1.012371 0.83882,-1.561945 V 18.373848 c 0.0289,-0.231403 0,-0.491722 -0.1157,-0.752051 z m -15.47482,20.247431 c -6.30563,0 -11.42534,-5.119702 -11.42534,-11.425337 0,-6.305621 5.11971,-11.425335 11.42534,-11.425335 4.25197,0 7.95435,2.342922 9.92124,5.784985 l -3.76024,2.169362 c -1.21484,-2.169362 -3.52884,-3.615611 -6.161,-3.615611 -3.90486,0 -7.08661,3.181744 -7.08661,7.086599 0,3.904869 3.18175,7.086601 7.08661,7.086601 2.63216,0 4.94616,-1.446238 6.161,-3.586685 l 3.73132,2.19829 c -1.9669,3.413146 -5.66929,5.727131 -9.89232,5.727131 z m 14.75171,-12.003827 h -0.9256 l -0.26034,1.156992 h 1.18594 v 1.44625 h -1.44625 l -0.3471,1.735494 h -1.41732 l 0.3471,-1.735494 h -1.09915 l -0.3471,1.735494 h -1.3884 l 0.3471,-1.735494 h -0.72312 v -1.44625 h 1.01237 l 0.26032,-1.156992 h -1.27269 v -1.446249 h 1.53302 l 0.3471,-1.735494 h 1.41732 l -0.34709,1.735494 h 1.09913 l 0.3471,-1.735494 h 1.3884 l -0.3471,1.735494 h 0.63636 z m -3.67347,1.156992 h 1.09914 l 0.26033,-1.156992 h -1.09914 z"
       id="path143"
       style="fill:#f5ff93;stroke-width:0.289248;fill-opacity:1" />
    <path
       id="path157"
       fill="#68bd45"
       d="m 152.47305,64.657672 a 15.177153,15.177153 0 0 1 -1.75883,3.1195 16.510034,16.510034 0 1 0 -23.05459,23.634337 l 0.61012,0.538607 a 16.502832,16.502832 0 0 0 27.09489,-11.447567 c 0.45012,-4.202861 -0.78398,-9.522038 -2.89109,-15.844352 z m -22.46506,26.849515 a 1.4115889,1.4115889 0 1 1 -0.20782,-1.984151 1.4115889,1.4115889 0 0 1 0.20782,1.984151 z m 22.39714,-4.943636 c -4.07426,5.427201 -12.77322,3.595833 -18.35064,3.859226 0,0 -0.98873,0.05813 -1.98415,0.221203 0,0 0.37552,-0.159432 0.85549,-0.341068 3.91686,-1.363222 5.76827,-1.625584 8.1475,-2.849925 4.47963,-2.27737 8.91091,-7.264753 9.83174,-12.44915 -1.7043,4.987382 -6.87943,9.276162 -11.59004,11.018014 -3.22856,1.189869 -9.06113,2.348881 -9.06113,2.348881 l -0.2351,-0.12599 c -3.96831,-1.929108 -4.09073,-10.523659 3.12617,-13.295385 3.16013,-1.217146 6.18343,-0.548892 9.59613,-1.36324 3.64421,-0.865774 7.86045,-3.595853 9.57607,-7.15877 1.91883,5.69985 4.23065,14.621062 0.0854,20.13984 z"
       style="fill:#f5ff93;stroke-width:0.514427;fill-opacity:1" />
    <path
       id="path168"
       fill="#222c37"
       d="m 204.94646,23.186814 -3.39757,-12.63958 -12.68779,3.388123 -1.87707,3.300114 -3.8023,-0.02734 -9.28229,9.252946 9.28326,9.250461 3.8078,-0.02834 1.87953,3.300112 12.67936,3.386135 3.39707,-12.638583 -1.92925,-3.272268 z m -7.95568,-7.905952 -5.56101,9.61642 H 180.2958 l 7.00796,-7.130273 z m -5.56101,12.741511 5.56699,9.615425 -9.69947,-2.492116 -7.00845,-7.120823 h 11.13397 z m 2.71885,-1.561302 5.56698,-9.616423 2.69151,9.616423 -2.69151,9.613935 z"
       style="fill:#f5ff93;stroke-width:0.497229;fill-opacity:1" />
    <path
       id="path179"
       d="m 175.9225,64.086797 2.45729,27.53069 11.02671,3.045758 11.05718,-3.04232 2.45972,-27.534128 z m 21.88986,6.518132 -0.154,1.761484 -0.0678,0.807798 h -12.93481 l 0.30872,3.438482 h 12.3186 l -0.0825,0.852497 -0.79405,8.871036 -0.0585,0.557525 -6.9251,1.903199 v 4.92e-4 l -0.009,0.0045 -6.92044,-1.823131 -0.46984,-5.208317 h 3.39305 l 0.24044,2.68177 3.75458,1.002317 h 0.0106 V 85.32048 l 3.77127,-0.951722 0.39396,-4.317505 h -11.71491 l -0.83088,-9.361791 -0.0809,-0.953687 h 16.93182 z"
       fill="#e44d26"
       style="fill:#f5ff93;stroke-width:0.245605;fill-opacity:1" />
    <path
       id="path190"
       d="m 232.24731,11.88521 2.33587,26.223797 10.48135,2.922454 10.51061,-2.93314 2.33773,-26.213111 z m 20.81284,6.00799 -0.77753,8.735999 0.002,0.04716 -0.003,0.108489 v -9.86e-4 l -0.55244,6.108347 -0.0608,0.542675 -6.58829,1.822237 v 2.31e-4 l -0.005,0.0044 -6.5769,-1.832398 -0.44534,-5.050176 h 3.22515 l 0.22883,2.567949 3.57431,0.968731 -8.2e-4,0.0018 v -4.64e-4 l 3.58756,-0.982438 0.37913,-4.181803 h -7.49962 l -0.0644,-0.706904 -0.14658,-1.656135 -0.0769,-0.889281 h 8.07252 l 0.29364,-3.252334 h -12.29521 l -0.0644,-0.706452 -0.14636,-1.656599 -0.0771,-0.889281 h 16.09463 z"
       fill="#1572b6"
       style="fill:#f5ff93;stroke-width:0.232309;fill-opacity:1" />
    <path
       d="m 231.32094,79.375022 v 13.759149 h 27.5183 V 65.61587 h -27.5183 z m 22.17535,-1.100733 a 3.4254782,3.4254782 0 0 1 1.72154,0.990658 4.5306131,4.5306131 0 0 1 0.66044,0.880586 c 0,0.03522 -1.18879,0.838759 -1.91307,1.287858 -0.0265,0.01761 -0.13209,-0.09686 -0.24876,-0.270782 a 1.560838,1.560838 0 0 0 -1.29227,-0.777116 c -0.83435,-0.05724 -1.3715,0.380854 -1.3671,1.100733 a 1.0082706,1.0082706 0 0 0 0.11887,0.515142 c 0.18273,0.380853 0.52395,0.607604 1.59387,1.069912 1.97031,0.847564 2.81346,1.406735 3.33741,2.201464 0.58559,0.880586 0.71548,2.302731 0.31922,3.355031 -0.4403,1.144762 -1.51901,1.921879 -3.04463,2.179449 a 8.4360102,8.4360102 0 0 1 -2.09579,-0.02202 5.0633675,5.0633675 0 0 1 -2.79366,-1.441959 c -0.25317,-0.279586 -0.74629,-1.008271 -0.71547,-1.061106 a 2.0561675,2.0561675 0 0 1 0.25316,-0.160706 l 1.01268,-0.581186 0.79033,-0.457905 0.1651,0.244362 a 3.6940568,3.6940568 0 0 0 1.0435,0.999465 c 0.88058,0.462307 2.08258,0.398465 2.67698,-0.136491 a 1.195395,1.195395 0 0 0 0.15189,-1.523413 c -0.22014,-0.306003 -0.66044,-0.563575 -1.89105,-1.100732 -1.41995,-0.612007 -2.03195,-0.990659 -2.59112,-1.59386 a 3.6280128,3.6280128 0 0 1 -0.7551,-1.375913 5.5036603,5.5036603 0 0 1 -0.0484,-1.761172 c 0.29279,-1.371512 1.32088,-2.329148 2.82228,-2.613138 a 6.9698354,6.9698354 0 0 1 2.08918,0.05724 z m -6.45909,1.153567 v 1.127149 h -3.57298 v 10.177369 h -2.53389 v -10.17957 h -3.58178 v -1.100732 a 10.829002,10.829002 0 0 1 0.0308,-1.135955 c 0.0132,-0.01762 2.20147,-0.02642 4.84323,-0.02202 h 4.80139 z"
       class="cls-1"
       id="plain"
       style="fill:#f5ff93;stroke-width:0.220146;fill-opacity:1" />
    <path
       id="path215"
       d="m 294.66103,26.020889 h 6.37678 c 1.77511,0 3.17342,-1.501966 3.17342,-3.28451 v -6.079154 c 0,-1.730277 -1.45036,-3.030174 -3.18304,-3.318845 -1.09651,-0.182606 -2.22955,-0.265708 -3.32125,-0.26046 -1.09126,0.005 -2.10205,0.09797 -3.01902,0.26046 -2.70192,0.476964 -3.16073,1.476379 -3.16073,3.318845 v 2.365573 h 6.34202 v 0.874761 h -8.7966 c -1.85537,0 -3.48024,1.117071 -3.98825,3.239023 -0.58631,2.431837 -0.61234,3.918712 0,6.457925 0.45378,1.889922 1.53739,3.205781 3.39298,3.205781 h 2.17509 v -2.853471 c 0,-2.107518 1.84312,-3.925928 4.0086,-3.925928 z m -0.40196,-8.552979 c -0.66176,0 -1.19799,-0.542133 -1.19799,-1.212637 0,-0.673348 0.53602,-1.220511 1.19799,-1.220511 0.65935,0 1.1982,0.547163 1.1982,1.220511 -2.1e-4,0.670504 -0.53906,1.212637 -1.1982,1.212637 z m 16.35563,5.668672 c -0.45881,-1.847496 -1.33467,-3.239023 -3.19266,-3.239023 h -2.33605 v 2.83882 c 0,2.197837 -1.92316,3.940581 -4.04818,3.940581 h -6.37678 c -1.74691,0 -3.13384,1.602125 -3.13384,3.351647 v 6.079592 c 0,1.729837 1.47507,2.747621 3.1627,3.244053 2.02114,0.594179 3.93511,0.701556 6.35317,0 1.60716,-0.465593 3.16817,-1.402029 3.16817,-3.244053 v -2.43315 h -6.34202 v -0.874761 h 9.55283 c 1.85537,0 2.54708,-1.263155 3.19266,-3.206 0.66635,-1.999922 0.6377,-3.892468 0,-6.457706 z m -9.17515,12.160495 c 0.66197,0 1.1982,0.542131 1.1982,1.213072 0,0.672693 -0.53601,1.220073 -1.1982,1.220073 -0.65935,0 -1.19799,-0.547157 -1.19799,-1.220073 0,-0.670941 0.53864,-1.213072 1.19799,-1.213072 z"
       fill="#ffd845"
       style="fill:#f5ff93;stroke-width:0.21869;fill-opacity:1" />
    <path
       d="m 283.8017,65.307259 v 28.13548 h 28.13548 v -28.13548 z m 21.20317,12.625797 c 1.5938,-0.03219 2.59,0.388825 3.32129,1.205429 0.20348,0.206177 0.36948,0.428542 0.6801,0.910447 -0.84902,0.541101 -0.84612,0.535902 -2.06225,1.323247 -0.25974,-0.559561 -0.69096,-0.910826 -1.14653,-1.063433 -0.70721,-0.21428 -1.59893,0.01897 -1.78394,0.76625 -0.0641,0.230263 -0.051,0.444332 0.051,0.824723 0.28653,0.653419 1.24809,0.937425 2.11061,1.333798 2.4829,1.007025 3.32129,2.087072 3.52747,3.3723 0.19852,1.106513 -0.0477,1.824098 -0.0853,1.931238 -0.91607,3.133617 -6.02369,3.235305 -8.06475,1.164984 -0.43126,-0.487306 -0.70199,-0.741858 -0.95926,-1.304343 1.08468,-0.623932 1.08508,-0.623793 2.1405,-1.234445 0.57329,0.881203 1.10329,1.365858 2.05697,1.564157 1.29378,0.158009 2.59551,-0.286734 2.3036,-1.660871 -0.30004,-1.122268 -2.64926,-1.395353 -4.24803,-2.5955 -1.62308,-1.090079 -2.00383,-3.738638 -0.66998,-5.252102 0.44454,-0.559784 1.20262,-0.977839 1.99807,-1.178613 z m -8.49034,0.203982 h 2.63551 c 0,2.475922 0.0135,4.820922 0,7.236972 0.006,1.481052 0.13408,2.801468 -0.46599,3.907755 -0.41528,0.843839 -1.2083,1.398083 -2.12687,1.665708 -1.4115,0.324121 -2.76144,0.139419 -3.76576,-0.463355 -0.67208,-0.412354 -1.19684,-1.047394 -1.55317,-1.778692 l 2.14271,-1.311815 c 0.0187,0.0079 0.0747,0.10946 0.1499,0.240909 0.27326,0.457821 0.50921,0.781802 0.97243,1.009362 0.45512,0.155308 1.454,0.254842 1.83979,-0.546004 0.23567,-0.407402 0.16092,-1.717257 0.16092,-3.166122 -2.3e-4,-2.276723 0.0105,-4.54388 0.0105,-6.794718 z"
       style="fill:#f5ff93;stroke-width:0.225084;fill-opacity:1"
       id="path21" />
    <g
       style="stroke-width:1.00019861;stroke-miterlimit:4;stroke-dasharray:none"
       transform="matrix(1.1340528,0,0,1.08407,73.157953,104.74966)"
       id="g76">
      <rect
         x="227.83151"
         y="-40.86935"
         width="34.924999"
         height="34.924999"
         id="canvas_background"
         fill="none"
         style="stroke-width:1.00019861;stroke-miterlimit:4;stroke-dasharray:none" />
      <path
         style="fill:#f5ff93;stroke-width:1.00019861;stroke-miterlimit:4;stroke-dasharray:none;fill-opacity:1"
         id="path6354"
         d="m 250.69072,-33.143253 -1.07487,4.125912 0.28115,0.20672 0.71101,0.51263 0.7111,0.520885 0.71104,0.51263 0.71109,0.520912 0.76068,0.545676 c 0.62458,0.42643 0.82291,0.644737 0.88469,0.702813 -0.0214,0.07391 -0.0811,0.339699 -0.33073,1.107943 l -0.27287,0.843359 -0.27283,0.835105 -0.27284,0.835077 -0.27287,0.835079 -0.26458,0.835104 -0.27287,0.843359 -0.27283,0.835079 -0.27284,0.835103 -0.27287,0.835105 -0.28927,0.892969 c -0.21508,0.734298 -0.3629,0.985122 -0.39687,1.058333 -0.0942,0.0024 -0.34798,0.02487 -1.15753,0.02487 h -8.85507 c -0.75716,0.02223 -1.04061,-0.03069 -1.12448,-0.04135 -0.0262,-0.06653 -0.12472,-0.235112 -0.38034,-1.09966 l -0.27286,-0.835079 -0.27284,-0.835104 -0.27284,-0.835105 -0.27286,-0.835077 -0.27287,-0.843359 -0.27284,-0.835105 -0.26458,-0.835078 -0.27284,-0.835078 -0.27286,-0.835104 -0.28924,-0.89297 c -0.25916,-0.724747 -0.2906,-1.014518 -0.30594,-1.091406 0.0599,-0.048 0.19375,-0.176741 0.91773,-0.702813 l 0.71109,-0.512604 0.71933,-0.520911 0.71106,-0.51263 0.71107,-0.520886 0.71107,-0.51263 0.27284,-0.198437 -1.07485,-4.125913 -0.1075,0.07443 -0.71106,0.520885 -0.71107,0.51263 -0.71107,0.520912 -0.71935,0.51263 -0.71101,0.520885 -0.7111,0.520912 -0.71104,0.51263 c -0.85013,0.617617 -1.76832,1.128289 -2.29859,2.414297 -0.52372,1.270211 -0.22519,2.513276 0.25641,3.869531 l 0.27278,0.835051 0.27286,0.835105 0.27287,0.835077 0.27284,0.843359 0.27284,0.835105 0.27286,0.835078 0.27286,0.835079 0.26459,0.835103 0.27284,0.843359 0.27284,0.835079 c 0.32469,0.999358 0.52829,2.033482 1.58747,2.935285 1.04476,0.8894 2.31743,0.981131 3.75391,0.942578 h 8.79766 c 1.05076,0 2.09753,0.125177 3.28242,-0.603591 1.16813,-0.718449 1.65997,-1.897118 2.06705,-3.274219 l 0.27274,-0.835079 0.26458,-0.84336 0.27284,-0.835103 0.27284,-0.835079 0.27286,-0.835077 0.27287,-0.835105 0.27284,-0.84336 0.27281,-0.835077 0.27286,-0.835105 0.26459,-0.835103 c 0.32466,-0.999331 0.7734,-1.95514 0.44648,-3.307292 -0.32234,-1.333209 -1.29622,-2.163683 -2.48044,-2.976562 l -0.71107,-0.512631 -0.71932,-0.520912 -0.7111,-0.520884 -0.71104,-0.512631 -0.71109,-0.520912 -0.71104,-0.51263 -0.7111,-0.520885 -0.11573,-0.08268 -6.6e-4,-8e-5 z" />
      <path
         style="fill:#f5ff93;stroke-width:1.00019861;stroke-miterlimit:4;stroke-dasharray:none;fill-opacity:1"
         id="path6356"
         d="m 245.1686,-36.060283 c -1.13993,0.06972 -2.10507,0.682466 -3.10065,1.446953 -0.01,0.0071 -0.0161,0.0172 -0.0249,0.02487 l 2.72838,10.505017 1.19063,2.6e-5 2.73685,-10.505017 -0.0249,-0.02487 c -0.85011,-0.61759 -1.62269,-1.331754 -3.00964,-1.438672 -0.17076,-0.01323 -0.33324,-0.01826 -0.49609,-0.0082 l 2.6e-4,-1.05e-4 z" />
    </g>
    <path
       style="stroke-width:0.238744;fill:#f5ff93;fill-opacity:1"
       fill-rule="evenodd"
       clip-rule="evenodd"
       fill="#336791"
       d="m 365.11967,29.597753 c -0.10499,-0.712941 -0.67678,-1.179849 -1.34189,-1.211366 -0.24076,-0.01145 -0.48525,0.01487 -0.72531,0.04691 -0.28998,0.0386 -0.57646,0.107018 -0.86574,0.15222 -0.19993,0.0313 -0.40266,0.04571 -0.60235,0.06723 l -0.005,-0.02715 c 0.37279,-0.737384 0.76122,-1.466696 1.11396,-2.21458 0.27039,-0.573676 0.50181,-1.168121 0.74093,-1.757681 0.39566,-0.976812 0.71177,-1.983932 0.97353,-3.007415 0.25079,-0.97999 0.46541,-1.970737 0.53283,-2.987378 0.0271,-0.406063 0.0458,-0.813844 0.0437,-1.220406 -0.002,-0.324219 -0.0352,-0.648927 -0.0662,-0.972177 -0.035,-0.370391 -0.14184,-0.721491 -0.28975,-1.059396 -0.19503,-0.445161 -0.49738,-0.810427 -0.81558,-1.157372 -0.25476,-0.277798 -0.53494,-0.530922 -0.81279,-0.783796 -0.39613,-0.36087 -0.84148,-0.648937 -1.30409,-0.904747 -0.52561,-0.290745 -1.07804,-0.518215 -1.65404,-0.671894 -0.3483,-0.09309 -0.70454,-0.162229 -1.05727,-0.236021 -0.12691,-0.02687 -0.25405,-0.08237 -0.38096,-0.08237 h -2.38913 c -0.0863,0 -0.17194,0.04663 -0.25896,0.05698 -0.57203,0.06667 -1.13729,0.179572 -1.68622,0.357694 -0.2053,0.06667 -0.39287,0.02466 -0.5879,0.0055 -0.14954,-0.01441 -0.2965,-0.05642 -0.44605,-0.06427 -0.56969,-0.02983 -1.14009,-0.07351 -1.70955,-0.06723 -0.54567,0.0055 -1.08574,0.09993 -1.61391,0.25703 -0.44208,0.131451 -0.8746,0.291972 -1.27073,0.535317 -0.1696,0.10409 -0.30398,0.08449 -0.47941,0.03149 -0.58953,-0.178122 -1.18326,-0.345486 -1.78211,-0.485969 -0.37326,-0.08745 -0.75702,-0.130962 -1.13822,-0.172738 -0.36534,-0.0398 -0.73347,-0.06381 -1.10067,-0.07184 -0.3588,-0.0083 -0.72017,-0.0074 -1.07733,0.02539 -0.569,0.05301 -1.12727,0.174207 -1.6699,0.369662 -0.60259,0.216961 -1.15502,0.53141 -1.6531,0.944326 -0.50554,0.419019 -0.911,0.930631 -1.23714,1.514817 -0.34364,0.616441 -0.57926,1.276366 -0.72577,1.969517 -0.0794,0.375526 -0.12948,0.761569 -0.18383,1.142958 -0.017,0.118745 0.17077,0.23749 -0.0625,0.355736 v 1.659953 c 0.23329,0.110434 0.0485,0.220628 0.0621,0.331312 0.0324,0.26607 0.0611,0.534338 0.10405,0.798459 0.0679,0.418041 0.14836,0.834862 0.23049,1.250215 0.11454,0.58027 0.23375,1.16006 0.36066,1.737403 0.0924,0.420238 0.19761,0.838038 0.30772,1.253641 0.16819,0.634762 0.33384,1.270742 0.52396,1.898412 0.1766,0.583207 0.37887,1.158112 0.5795,1.733007 0.27785,0.795283 0.61052,1.564914 1.00945,2.302528 0.34504,0.638668 0.73929,1.236779 1.26817,1.728851 0.34853,0.324229 0.73649,0.573437 1.18815,0.698046 0.35483,0.09773 0.7155,0.109455 1.07873,0.03149 0.42109,-0.0904 0.79389,-0.280245 1.1254,-0.564636 0.038,-0.03269 0.0798,-0.05762 0.1248,0.0028 0.17147,0.227461 0.40103,0.379191 0.64109,0.510393 0.64785,0.353788 1.35379,0.459826 2.07092,0.503071 0.17357,0.01053 0.349,-0.01561 0.52397,-0.02078 0.34084,-0.0098 0.67211,-0.07942 0.99802,-0.178113 0.17077,-0.0518 0.33757,-0.117526 0.51137,-0.178852 0.009,0.193756 0.0208,0.38042 0.0261,0.567084 l 0.0242,1.017868 c 0.004,0.154898 0.0102,0.310294 0.024,0.464462 0.0353,0.397522 0.0697,0.795283 0.11501,1.191577 0.0315,0.273162 0.0642,0.548512 0.12552,0.815072 0.1234,0.538254 0.29068,1.062332 0.50344,1.570528 0.20879,0.498675 0.50904,0.919643 0.90983,1.266837 0.51791,0.448578 1.12493,0.639887 1.78047,0.675319 0.27109,0.01487 0.54987,9.24e-4 0.81676,-0.04987 0.42295,-0.08043 0.84497,-0.181538 1.25673,-0.311521 0.83775,-0.264852 1.56189,-0.72223 2.10289,-1.461313 0.30794,-0.421217 0.56082,-0.876888 0.72319,-1.379958 0.13391,-0.415593 0.26012,-0.835351 0.36044,-1.260724 0.0794,-0.335217 0.11851,-0.680934 0.1668,-1.023234 0.0319,-0.226491 0.051,-0.455181 0.0712,-0.683381 0.0326,-0.37064 0.066,-0.74104 0.0896,-1.112419 0.0163,-0.258498 0.0156,-0.518215 0.0254,-0.777203 0.003,-0.07895 0.0152,-0.157344 0.0221,-0.236021 0.006,-0.07277 0.0415,-0.09797 0.11244,-0.09675 0.24986,0.0037 0.50018,0.01071 0.74933,-9.23e-4 0.27925,-0.0132 0.56107,-0.02567 0.83588,-0.07406 0.39123,-0.0687 0.78059,-0.155396 1.16413,-0.260696 0.45328,-0.124119 0.869,-0.346455 1.2691,-0.599819 0.46611,-0.294909 0.89093,-0.640875 1.23573,-1.086526 0.29978,-0.388721 0.44185,-0.838038 0.36953,-1.328642 z m -0.796,0.239927 c -0.0154,0.223565 -0.11314,0.415113 -0.25498,0.578811 -0.66931,0.772807 -1.50893,1.241673 -2.46938,1.47256 -0.36487,0.08745 -0.74141,0.132911 -1.1149,0.169073 -0.31797,0.03075 -0.64062,0.03592 -0.95976,0.02373 -0.23469,-0.0093 -0.46751,-0.06547 -0.70734,-0.101643 -0.0241,0.229668 -0.0469,0.468867 -0.0747,0.707575 l -0.11174,0.914998 c -0.0339,0.290015 -0.0602,0.581009 -0.095,0.870784 -0.034,0.281214 -0.0765,0.561459 -0.1122,0.842674 -0.0333,0.261924 -0.0578,0.525057 -0.095,0.786492 -0.0571,0.400689 -0.11174,0.802366 -0.1864,1.199887 -0.0896,0.475211 -0.22699,0.935526 -0.45118,1.364066 -0.27341,0.523109 -0.66114,0.9216 -1.15456,1.216749 -0.50857,0.30443 -1.0645,0.462754 -1.62813,0.595175 -0.39893,0.09382 -0.80999,0.109215 -1.21404,0.0711 -0.70081,-0.06649 -1.29896,-0.38041 -1.75109,-0.949451 -0.43159,-0.543138 -0.72366,-1.165674 -0.82818,-1.870313 -0.0499,-0.334977 -0.0859,-0.672872 -0.11454,-1.010536 -0.0317,-0.375525 -0.0534,-0.752279 -0.0697,-1.128783 -0.0208,-0.478147 -0.036,-0.956294 -0.0459,-1.434441 -0.0123,-0.587851 -0.0163,-1.175703 -0.0242,-1.763554 l -0.002,-0.02244 c -0.28555,0.17934 -0.56619,0.375774 -0.86387,0.537524 -0.34854,0.189591 -0.72717,0.299544 -1.11933,0.330572 -0.30748,0.02447 -0.61892,0.04663 -0.92499,0.02105 -0.50181,-0.04229 -1.00316,-0.124608 -1.45248,-0.383347 -0.1822,-0.105059 -0.37232,-0.232844 -0.49784,-0.400698 -0.30094,-0.402157 -0.15677,-0.910362 0.29698,-1.154925 0.31354,-0.169322 0.65578,-0.239937 0.99569,-0.322271 0.29534,-0.07157 0.58929,-0.152949 0.8774,-0.251415 0.28509,-0.09773 0.46495,-0.339853 0.64249,-0.577343 l 0.28134,-0.378951 c -0.11734,-0.01293 -0.22792,-0.02613 -0.3385,-0.03685 -0.3357,-0.03324 -0.65601,-0.129974 -0.96232,-0.272174 -0.26222,-0.121432 -0.26619,-0.134628 -0.45842,0.08385 -0.32101,0.365026 -0.63315,0.738593 -0.94763,1.109732 -0.23142,0.272913 -0.46145,0.547534 -0.69171,0.821177 -0.22815,0.270715 -0.44185,0.556824 -0.6875,0.808719 -0.36487,0.374066 -0.80462,0.59909 -1.32929,0.573677 -0.33664,-0.01616 -0.64482,-0.139753 -0.92197,-0.341811 -0.57203,-0.417311 -0.95742,-1.001007 -1.3083,-1.614022 -0.44955,-0.785504 -0.79458,-1.622323 -1.08993,-2.482109 -0.20436,-0.594195 -0.40966,-1.188889 -0.58812,-1.791645 -0.19386,-0.65504 -0.36393,-1.318383 -0.53121,-1.981485 -0.12643,-0.500365 -0.23864,-1.004904 -0.34572,-1.510412 -0.12155,-0.574905 -0.23842,-1.150779 -0.34154,-1.72959 -0.0695,-0.390679 -0.10988,-0.786972 -0.1661,-1.180338 -0.0758,-0.530183 -0.0898,-1.06526 -0.0623,-1.59765 0.0245,-0.479615 0.0903,-0.958002 0.15561,-1.434441 0.0905,-0.659186 0.29791,-1.281242 0.59629,-1.868604 0.18266,-0.359891 0.40943,-0.687047 0.67164,-0.990987 0.43042,-0.498915 0.95136,-0.859546 1.53085,-1.130251 0.405,-0.189111 0.83286,-0.302971 1.26887,-0.391907 0.64715,-0.131932 1.30013,-0.126798 1.95335,-0.112632 0.28554,0.0065 0.56993,0.06058 0.85524,0.09013 0.61425,0.064 1.21638,0.199371 1.8108,0.366494 0.43322,0.121673 0.85757,0.279266 1.2873,0.416083 0.0431,0.01367 0.10638,0.01247 0.14161,-0.01173 0.58229,-0.398001 1.21871,-0.660655 1.89548,-0.810917 0.25686,-0.05698 0.52187,-0.08182 0.78456,-0.09943 0.31938,-0.02124 0.64131,-0.04082 0.95999,-0.02152 0.38307,0.02299 0.76426,0.08209 1.14499,0.136826 0.18477,0.02641 0.3651,0.09357 0.55034,0.111902 0.0886,0.0092 0.18266,-0.0591 0.27644,-0.08182 0.47801,-0.115559 0.95393,-0.244323 1.43615,-0.335698 0.35903,-0.06797 0.72576,-0.09993 1.09086,-0.121921 0.4071,-0.02447 0.81721,-0.04229 1.22408,-0.02179 0.5144,0.02595 1.02508,0.102621 1.52922,0.225513 0.62452,0.152219 1.22361,0.373327 1.79307,0.680204 0.42552,0.229179 0.83005,0.495009 1.19421,0.821915 0.23866,0.214515 0.48292,0.426351 0.69847,0.6653 0.26596,0.29466 0.53728,0.58956 0.70408,0.967043 0.12551,0.28464 0.21509,0.5793 0.23982,0.891062 0.0308,0.387502 0.0682,0.776464 0.0646,1.164455 -0.004,0.37113 -0.0516,0.74202 -0.0859,1.112171 -0.0779,0.843902 -0.25311,1.669483 -0.46588,2.484066 -0.1759,0.672872 -0.38143,1.338422 -0.60399,1.99615 -0.20506,0.606172 -0.44162,1.201346 -0.68075,1.794083 -0.1766,0.438328 -0.36672,0.872002 -0.57342,1.295666 -0.39123,0.802856 -0.79809,1.5974 -1.26864,2.353594 -0.0812,0.130713 -0.15816,0.264602 -0.23748,0.398011 0.20529,0.145128 0.43788,0.196194 0.6721,0.222576 0.2228,0.02539 0.45002,0.04054 0.67258,0.02318 0.35624,-0.02761 0.7113,-0.08089 1.06544,-0.132911 0.35087,-0.05134 0.69474,-0.155885 1.05495,-0.128274 0.35972,0.02733 0.61705,0.313719 0.59255,0.666768 z m -5.13542,-0.819219 c -0.15281,-0.206702 -0.30864,-0.410957 -0.45819,-0.620107 -0.23469,-0.328374 -0.40335,-0.695108 -0.57272,-1.063551 -0.16051,-0.349142 -0.3574,-0.679715 -0.52654,-1.024942 -0.29511,-0.602266 -0.59559,-1.202575 -0.86738,-1.816569 -0.34177,-0.771338 -0.61122,-1.570038 -0.69613,-2.424449 -0.0359,-0.3616 -0.0451,-0.72272 0.0247,-1.080903 0.11174,-0.571968 0.39706,-1.019327 0.8767,-1.326204 0.44488,-0.284641 0.94063,-0.376504 1.4485,-0.405334 0.31518,-0.01782 0.63175,-0.0028 0.95883,-0.0028 l -0.0109,-0.0579 c -0.20344,-0.445402 -0.39357,-0.898385 -0.61613,-1.333287 -0.31401,-0.613745 -0.71573,-1.167143 -1.16318,-1.680233 -0.33151,-0.379921 -0.69055,-0.732489 -1.08388,-1.044002 -0.38679,-0.306627 -0.79435,-0.580519 -1.2292,-0.804563 -0.5186,-0.267049 -1.05867,-0.473512 -1.62534,-0.605203 -0.5445,-0.126557 -1.0925,-0.204006 -1.65099,-0.210359 -0.47638,-0.0055 -0.94973,0.01708 -1.41375,0.129733 -0.70034,0.169811 -1.34095,0.471794 -1.89828,0.960939 -0.31122,0.273153 -0.58276,0.579781 -0.82049,0.921111 -0.27901,0.401428 -0.50414,0.834862 -0.69661,1.289304 -0.26408,0.623524 -0.44535,1.272451 -0.56922,1.939469 -0.0621,0.332521 -0.11058,0.667987 -0.16004,1.003195 -0.0173,0.117277 -0.0187,0.237241 -0.0287,0.371629 0.0861,-0.04691 0.14814,-0.08311 0.2116,-0.115328 l 0.20645,-0.097 c 0.69824,-0.334479 1.42168,-0.549732 2.19924,-0.525058 0.33034,0.01053 0.64645,0.07895 0.94016,0.230407 0.5634,0.290985 0.89304,0.785744 1.03628,1.411955 0.0989,0.432215 0.16656,0.872981 0.23236,1.312519 0.0516,0.343279 0.10427,0.690224 0.11034,1.03644 0.009,0.505997 -0.0159,1.012974 -0.0422,1.518732 -0.0224,0.430987 -0.10824,0.85514 -0.25195,1.257297 -0.26128,0.731271 -0.55243,1.450564 -0.82444,2.17768 -0.0898,0.240176 -0.15888,0.488895 -0.24379,0.753017 0.1311,0 0.23748,-9.23e-4 0.34386,4.89e-4 0.0415,7.3e-4 0.0839,0.0018 0.12411,0.01201 0.31261,0.0772 0.5837,0.225513 0.80603,0.477408 0.29651,0.335217 0.45211,0.726386 0.46004,1.17912 0.004,0.250926 -0.0208,0.502581 -0.0196,0.753507 0.005,1.16934 0.0133,2.338689 0.0227,3.507789 0.002,0.19106 0.0107,0.382368 0.0238,0.573188 0.0273,0.399479 0.0548,0.799189 0.0922,1.197689 0.0261,0.282683 0.0625,0.564886 0.10522,0.845611 0.0604,0.397762 0.23329,0.751799 0.42949,1.090183 0.1689,0.290994 0.38843,0.538254 0.6777,0.708794 0.49155,0.289775 1.02089,0.31396 1.55442,0.207192 0.36043,-0.07203 0.71434,-0.187892 1.06427,-0.307366 0.34504,-0.117517 0.65671,-0.310054 0.91847,-0.575145 0.24519,-0.248968 0.41922,-0.552419 0.53657,-0.887387 0.22769,-0.649666 0.29861,-1.333786 0.39286,-2.012522 0.0353,-0.254094 0.0658,-0.508925 0.098,-0.763517 0.0366,-0.289775 0.0737,-0.579301 0.10919,-0.868826 0.0261,-0.215743 0.0499,-0.431966 0.0751,-0.647709 0.036,-0.309804 0.074,-0.619368 0.10824,-0.929412 0.0264,-0.239688 0.0488,-0.480354 0.0721,-0.720522 0.0301,-0.306877 0.0625,-0.613745 0.0884,-0.921111 0.02,-0.233334 0.0119,-0.470815 0.0513,-0.699753 0.0726,-0.419749 0.26199,-0.776953 0.61729,-1.007841 0.14861,-0.09651 0.31634,-0.160031 0.48128,-0.241645 z m -13.43684,-1.722987 c -0.17754,-0.440277 -0.28416,-0.899124 -0.31588,-1.373605 -0.0299,-0.4459 0.0208,-0.890083 0.0644,-1.334026 0.0424,-0.430008 0.0777,-0.861983 0.0901,-1.293949 0.0205,-0.710013 -0.0252,-1.419047 -0.0577,-2.12857 -0.0196,-0.422446 0.0273,-0.850016 0.0632,-1.273431 0.0324,-0.381389 0.0728,-0.763766 0.14161,-1.139531 0.11548,-0.630607 0.26875,-1.252173 0.48664,-1.854688 0.20693,-0.57123 0.44465,-1.127564 0.78036,-1.628428 0.23002,-0.343528 0.49107,-0.66457 0.74186,-1.000277 l -0.0744,-0.02761 c -0.81605,-0.271444 -1.64541,-0.483521 -2.49832,-0.576114 -0.40336,-0.04377 -0.80811,-0.06935 -1.21264,-0.09456 -0.12411,-0.0074 -0.25009,0.0098 -0.37467,0.02225 -0.30841,0.03075 -0.62055,0.04303 -0.92406,0.103592 -0.5165,0.102862 -1.01202,0.275849 -1.4709,0.557553 -0.41199,0.252884 -0.75796,0.57979 -1.04771,0.971928 -0.32007,0.432954 -0.5354,0.922579 -0.69007,1.444709 -0.18266,0.615943 -0.26968,1.249726 -0.29325,1.889373 -0.0206,0.56073 -0.0308,1.124636 0.0615,1.683159 0.0689,0.415843 0.11479,0.83609 0.19061,1.250215 0.10334,0.564646 0.21416,1.128063 0.34223,1.686835 0.18314,0.799919 0.36603,1.601066 0.583,2.391224 0.20763,0.757164 0.44185,1.507485 0.69567,2.248775 0.20763,0.604953 0.44769,1.198668 0.70057,1.784562 0.1647,0.381638 0.36417,0.748853 0.5732,1.106306 0.22233,0.379441 0.47521,0.739573 0.81838,1.014933 0.43298,0.347674 0.76823,0.401667 1.20821,0.02032 0.1885,-0.163458 0.34784,-0.365266 0.51184,-0.557553 0.26059,-0.305409 0.51208,-0.619119 0.7715,-0.925507 0.33034,-0.390438 0.66487,-0.776712 0.99685,-1.165194 0.0702,-0.08209 0.13764,-0.166625 0.20599,-0.249697 l -0.11291,-0.103841 c -0.41269,-0.415113 -0.7323,-0.896436 -0.95533,-1.449096 z m 12.52491,-11.622362 c 0.26967,0.331311 0.53073,0.672383 0.77195,1.027149 0.46659,0.686308 0.83938,1.427358 1.11397,2.220194 0.12154,0.349383 0.21859,0.702192 0.1752,1.08456 -0.0301,0.267787 -0.0275,0.539472 -0.0502,0.808719 -0.0189,0.224054 -0.0527,0.446879 -0.0805,0.670194 -0.0415,0.336676 -0.10172,0.672383 -0.11968,1.010528 -0.017,0.321781 7e-4,0.646979 0.0201,0.969489 0.0196,0.327645 0.0618,0.653813 0.0905,0.980968 0.0325,0.37089 0.076,0.74178 0.0861,1.113399 0.008,0.305159 -0.0177,0.612276 -0.0431,0.916955 -0.0303,0.366974 -0.11922,0.72223 -0.25172,1.063062 -0.0931,0.239928 -0.20436,0.472532 -0.30958,0.7127 l 0.0422,0.04691 0.0642,0.05208 0.0646,-0.121183 c 0.54566,-0.901082 1.03114,-1.836847 1.45153,-2.808046 0.27039,-0.625472 0.52374,-1.259744 0.76683,-1.897434 0.37886,-0.992945 0.67864,-2.013741 0.91053,-3.054816 0.10404,-0.467398 0.1836,-0.941879 0.25429,-1.416359 0.055,-0.37089 0.10101,-0.746175 0.11127,-1.120482 0.0109,-0.397032 -0.01,-0.797231 -0.0451,-1.193285 -0.0261,-0.299064 -0.0966,-0.600068 -0.27551,-0.843172 -0.28765,-0.391409 -0.59816,-0.765724 -0.98006,-1.061843 -0.32147,-0.249458 -0.64178,-0.505268 -0.98682,-0.715147 -0.54706,-0.332281 -1.13916,-0.553638 -1.75784,-0.70439 -0.60375,-0.147325 -1.21544,-0.210857 -1.8311,-0.224293 -0.363,-0.0083 -0.72763,0.03278 -1.08993,0.06843 -0.32824,0.03223 -0.65439,0.08726 -0.98496,0.132671 0.35461,0.2089 0.70431,0.394594 1.03418,0.613504 0.69357,0.460066 1.31506,1.013713 1.8486,1.668994 z m -9.01086,12.881368 c 0.22419,-0.75081 0.52957,-1.467666 0.82538,-2.188917 0.23982,-0.584915 0.37094,-1.201107 0.41456,-1.833911 0.0217,-0.312002 0.0156,-0.627919 8.8e-4,-0.9409 -0.0166,-0.347675 -0.0431,-0.696328 -0.0915,-1.040585 -0.0621,-0.440037 -0.13274,-0.880314 -0.23212,-1.31228 -0.10778,-0.467398 -0.37957,-0.792836 -0.84522,-0.9128 -0.28367,-0.07304 -0.56549,-0.07009 -0.8522,-0.02272 -0.70034,0.115568 -1.34142,0.385784 -1.93865,0.781598 -0.12015,0.07969 -0.18617,0.143908 -0.16541,0.324468 0.0438,0.382368 0.0534,0.770849 0.0518,1.156883 -0.003,0.546315 -0.0245,1.092621 -0.0444,1.638696 -0.006,0.177873 -0.031,0.354757 -0.0492,0.5319 -0.028,0.271196 -0.0819,0.54216 -0.0802,0.812875 0.002,0.279017 0.0289,0.564636 0.0935,0.834862 0.2053,0.856849 0.64016,1.558061 1.35286,2.05283 0.43835,0.304181 0.92336,0.457619 1.45573,0.486698 0.0362,-0.128035 0.0683,-0.248968 0.10405,-0.368692 z m -0.83658,-7.351046 c -0.0938,-0.206204 -0.0401,-0.376994 0.1773,-0.456151 0.053,-0.01958 0.10754,-0.04035 0.16261,-0.04589 0.0756,-0.0074 0.15256,-0.0018 0.22909,-0.0018 0.27574,0.0018 0.541,0.04174 0.76869,0.225513 0.14604,0.117766 0.18523,0.274132 0.0908,0.434653 -0.13414,0.227711 -0.33874,0.34206 -0.58999,0.364047 -0.3959,0.03444 -0.67375,-0.158813 -0.83845,-0.520172 z m 10.974,-0.07526 c 0.0317,-0.274622 0.0571,-0.549972 0.0896,-0.824593 0.0131,-0.110444 -0.0424,-0.140243 -0.13088,-0.142939 -0.27808,-0.0083 -0.55616,-0.01828 -0.83424,-0.02373 -0.31355,-0.0055 -0.61869,0.04691 -0.90891,0.171769 -0.32193,0.138774 -0.56712,0.36111 -0.66721,0.728085 -0.0747,0.273651 -0.0947,0.547053 -0.0683,0.833153 0.0401,0.43613 0.13251,0.859296 0.27831,1.264639 0.19457,0.542649 0.39823,1.085049 0.64155,1.604981 0.32964,0.7039 0.70268,1.385323 1.05285,2.078484 0.0935,0.184955 0.17216,0.377972 0.26968,0.593955 0.20413,-0.452743 0.30374,-0.905967 0.31518,-1.373605 0.01,-0.393366 -0.0205,-0.78844 -0.0425,-1.182047 -0.0138,-0.240906 -0.0462,-0.480344 -0.0686,-0.720761 -0.0312,-0.334977 -0.0786,-0.669705 -0.0859,-1.005412 -0.007,-0.341321 0.0159,-0.6846 0.0438,-1.025431 0.0264,-0.326907 0.0779,-0.651135 0.11548,-0.976573 z m -0.62733,-0.264353 c -0.10334,0.298806 -0.32427,0.467389 -0.61075,0.516987 -0.26711,0.0459 -0.50111,-0.05744 -0.67514,-0.280485 -0.12388,-0.158813 -0.0765,-0.346945 0.10918,-0.454202 0.21322,-0.12363 0.44768,-0.154898 0.72413,-0.173718 0.0751,0.01441 0.18827,0.02641 0.29581,0.05864 0.15608,0.04617 0.2137,0.169072 0.15677,0.332779 z m -8.26362,9.20132 c -0.1528,-0.130712 -0.35483,-0.138284 -0.50017,0.0055 -0.18034,0.178362 -0.33897,0.382377 -0.49761,0.583456 -0.18314,0.232355 -0.35484,0.473991 -0.59116,0.654062 -0.34387,0.261674 -0.74466,0.370151 -1.14756,0.472772 -0.3203,0.08163 -0.64201,0.157345 -0.96325,0.235772 l -0.004,0.04349 c 0.0954,0.04617 0.1878,0.103841 0.28718,0.136826 0.48991,0.162479 0.98821,0.243345 1.50589,0.197413 0.37373,-0.03324 0.72973,-0.118496 1.06707,-0.286109 0.46425,-0.230398 0.82142,-0.595424 1.12516,-1.020057 0.0509,-0.07083 0.074,-0.175675 0.0801,-0.267049 0.0208,-0.32276 -0.13577,-0.562688 -0.3616,-0.755705 z m 12.07303,0.128515 c -0.39426,0.04423 -0.78899,0.09114 -1.18441,0.114839 -0.19084,0.01145 -0.38447,-0.0266 -0.57716,-0.04303 -0.32311,-0.02733 -0.63853,-0.102622 -0.91171,-0.283422 -0.15817,-0.104321 -0.28951,-0.116048 -0.45748,-0.05698 -0.23982,0.08459 -0.43555,0.213056 -0.49341,0.485239 -0.0394,0.183977 -0.0537,0.374547 -0.0695,0.562928 -0.003,0.03324 0.0366,0.0943 0.0669,0.102612 0.185,0.05107 0.37093,0.111413 0.56014,0.129245 0.23235,0.02198 0.46891,0.01487 0.7029,0.0028 0.25265,-0.0132 0.50694,-0.03029 0.75586,-0.07424 0.58672,-0.103102 1.15433,-0.271196 1.65846,-0.619609 0.18174,-0.125827 0.36184,-0.254342 0.54241,-0.381638 l -0.0149,-0.02687 c -0.19271,0.03001 -0.38447,0.06667 -0.5781,0.08819 z"
       id="path78" />
  </g>
</svg>
